<svg width="292" height="111" viewBox="0 0 292 111" fill="none" xmlns="http://www.w3.org/2000/svg">
<path d="M3.72095 111V76.874H16.617V111H3.72095Z" fill="white"/>
<path d="M25.5449 111V76.874H43.5703L48.479 91.3953C48.479 91.4407 48.6989 92.3938 49.0659 94.118C49.432 95.8885 49.799 97.6127 50.2378 99.3824C50.5313 98.0665 50.8974 96.4324 51.4098 94.4817C51.8504 92.5756 52.1421 91.4862 52.2157 91.2597L57.0524 76.874H74.9308V111H62.767L63.867 84.6339L55.1465 111H45.3292L36.6086 84.6339L37.7087 111H25.5449Z" fill="white"/>
<path d="M84.0042 111V76.874H113.973V83.499H96.8275V89.7619H112.654V96.6142H96.8275V104.057H113.973V111H84.0042Z" fill="white"/>
<path d="M118.001 111L129.8 94.2089L118.808 76.874H132.216L137.345 86.9938L142.402 76.874H156.103L144.819 94.2089L156.397 111H142.547L137.345 101.152L131.778 111H118.001Z" fill="white"/>
<path d="M160.855 111V76.874H190.896V83.499H173.824V89.7165H189.651V96.5688H173.824V111H160.855Z" fill="white"/>
<path d="M198.455 111V76.874H211.352V111H198.455Z" fill="white"/>
<path d="M220.278 111V76.874H233.688L244.385 97.9301C243.946 94.3907 243.653 91.3051 243.433 88.7634C243.212 86.1771 243.139 83.9982 243.139 82.2285V76.874H254.643V111H241.161L230.39 89.3082C230.903 92.1218 231.269 94.8445 231.489 97.5218C231.783 100.154 231.856 102.741 231.856 105.236V111H220.278Z" fill="white"/>
<path d="M292 111H263.644V76.874H276.54V104.102H292V111Z" fill="white"/>
<path fill-rule="evenodd" clip-rule="evenodd" d="M57.7403 0C25.851 0 0 25.0641 0 55.9821C0 62.0351 0.994656 67.8616 2.82785 73.3219H8.56855C5.66388 64.0536 5.08111 51.941 8.44919 40.8219L36.8093 40.888C35.6063 51.7401 35.8687 62.8303 36.7227 73.4096L41.2211 73.3219C40.8386 62.5616 40.5517 51.8187 41.472 41.0559H74.9361C75.9471 52.0493 76.27 62.8336 75.3996 73.3219H80.0336C80.8215 62.9088 80.9662 52.0988 79.8252 41.4311L107.604 41.193C110.792 52.0964 110.108 64.1263 107.462 73.3219H112.652C114.485 67.8616 115.48 62.0351 115.48 55.9821C115.48 25.0641 89.6287 0 57.7403 0ZM48.1338 6.47039C30.2971 7.78629 16.6132 22.2885 9.73072 36.9602L37.4534 36.9833C38.7341 29.0168 40.8974 15.6024 48.1338 6.47039ZM68.634 6.43984C85.7637 10.7496 99.7198 21.6553 106.602 36.327L79.3863 36.5213C78.1056 28.5548 75.8711 15.5726 68.634 6.43984ZM42.0449 36.8188C50.4859 -4.65691 66.4902 -2.61859 74.5063 36.8188H42.0449Z" fill="white"/>
</svg>
